<?xml version="1.0" encoding="UTF-8" standalone="no"?>
<!-- Created with Inkscape (http://www.inkscape.org/) -->

<svg
   width="80.017548mm"
   height="42.394588mm"
   viewBox="0 0 80.017548 42.394589"
   version="1.1"
   id="svg27920"
   inkscape:version="1.1 (c68e22c387, 2021-05-23)"
   sodipodi:docname="XHARPy_logo.svg"
   xmlns:inkscape="http://www.inkscape.org/namespaces/inkscape"
   xmlns:sodipodi="http://sodipodi.sourceforge.net/DTD/sodipodi-0.dtd"
   xmlns="http://www.w3.org/2000/svg"
   xmlns:svg="http://www.w3.org/2000/svg"
   xmlns:rdf="http://www.w3.org/1999/02/22-rdf-syntax-ns#"
   xmlns:cc="http://creativecommons.org/ns#"
   xmlns:dc="http://purl.org/dc/elements/1.1/">
  <title
     id="title904">XHARPy Logo</title>
  <sodipodi:namedview
     id="namedview27922"
     pagecolor="#ffffff"
     bordercolor="#666666"
     borderopacity="1.0"
     inkscape:pageshadow="2"
     inkscape:pageopacity="0.0"
     inkscape:pagecheckerboard="0"
     inkscape:document-units="mm"
     showgrid="false"
     inkscape:zoom="1"
     inkscape:cx="557.5"
     inkscape:cy="-96.5"
     inkscape:window-width="1920"
     inkscape:window-height="1137"
     inkscape:window-x="1912"
     inkscape:window-y="-8"
     inkscape:window-maximized="1"
     inkscape:current-layer="layer1"
     fit-margin-top="2"
     fit-margin-left="2"
     lock-margins="true"
     fit-margin-right="2"
     fit-margin-bottom="2" />
  <defs
     id="defs27917">
    <rect
       x="127.28955"
       y="18.184221"
       width="565.5293"
       height="145.47377"
       id="rect31240" />
    <rect
       x="127.28955"
       y="18.184221"
       width="565.5293"
       height="145.47377"
       id="rect31240-7" />
    <rect
       x="127.28955"
       y="18.184221"
       width="565.5293"
       height="145.47377"
       id="rect31240-7-5" />
    <rect
       x="127.28955"
       y="18.184221"
       width="565.5293"
       height="145.47377"
       id="rect31240-7-5-6" />
  </defs>
  <g
     inkscape:label="Ebene 1"
     inkscape:groupmode="layer"
     id="layer1"
     transform="translate(-59.321994,-34.544095)">
    <g
       id="g883">
      <path
         id="path27983"
         style="fill:#000000;stroke:none;stroke-width:0.0352777"
         d="m 118.85306,36.544095 0.0186,0.269234 c 0.0197,0.319597 -0.0668,0.77228 -0.1943,1.016992 -0.24226,0.463508 -0.76242,0.857584 -1.44849,1.092956 -0.21741,0.07659 -0.285,0.08781 -0.38086,0.06201 -0.22185,-0.05971 -0.30979,-0.300336 -0.22427,-0.61805 l 0.0388,-0.145211 -0.0889,0.04651 c -0.19592,0.105882 -0.49099,0.569483 -0.49403,0.777214 5.3e-4,0.08532 -0.0907,0.119619 -0.22221,0.08423 -0.11777,-0.0317 -0.17172,-0.125358 -0.1788,-0.306441 -0.007,-0.213417 -0.004,-0.204036 -0.0439,-0.164848 -0.0168,0.01896 -0.0657,0.103029 -0.10852,0.185519 -0.0635,0.126828 -0.0807,0.201489 -0.10645,0.450101 -0.0238,0.252075 -0.0383,0.315731 -0.0972,0.414445 -0.0844,0.138844 -0.23812,0.241073 -0.33124,0.216008 -0.10682,-0.02875 -0.12299,-0.100297 -0.0574,-0.267684 0.057,-0.146222 0.0553,-0.149556 -0.007,-0.116272 -0.0375,0.01931 -0.10757,0.08264 -0.15813,0.139526 -0.0759,0.08533 -0.0988,0.137906 -0.12196,0.278536 -0.0169,0.09533 -0.0291,0.19461 -0.0248,0.222209 0.006,0.06341 -0.12625,0.06611 -0.18914,0.0052 -0.0521,-0.04633 -0.0681,-0.194921 -0.0341,-0.32091 0.0391,-0.14516 -0.0142,-0.121081 -0.11628,0.05116 -0.0767,0.132098 -0.10607,0.218203 -0.16019,0.473873 l -0.0646,0.317293 -0.24649,0.216008 c -0.31526,0.276431 -0.39833,0.368444 -0.54106,0.614949 -0.13481,0.228068 -0.18347,0.441174 -0.15503,0.695565 0.0218,0.202671 -0.002,0.278418 -0.17104,0.591179 -0.0967,0.173713 -0.13418,0.269554 -0.12093,0.296622 0.009,0.02284 0.0741,0.06362 0.13953,0.09302 0.10239,0.04521 0.13888,0.08484 0.22221,0.233577 0.0833,0.148738 0.10727,0.234038 0.12971,0.478007 0.0418,0.434206 0.0607,0.504392 0.16226,0.596346 0.0881,0.0766 0.0965,0.07878 0.44132,0.10697 0.86148,0.07327 1.21604,0.230372 1.45624,0.647506 0.21492,0.369203 0.2444,0.902995 0.0723,1.291394 -0.1958,0.443702 -0.60437,0.783067 -1.4242,1.188041 -0.69143,0.342609 -0.84042,0.469832 -0.89813,0.771529 -0.0521,0.259147 0.11951,0.549104 0.7891,1.346172 1.07318,1.272863 1.53743,1.88241 1.79575,2.363163 0.34218,0.638446 0.41365,1.007244 0.41341,2.132169 5.3e-4,1.001781 0.0804,1.546159 0.31885,2.133203 0.18564,0.467063 0.43531,0.868993 0.93792,1.500684 0.95656,1.215039 1.4274,1.976218 2.84944,4.626592 0.35019,0.652349 0.78702,1.43075 0.97359,1.730642 0.94994,1.545175 1.44756,2.478471 1.89342,3.550171 0.0593,0.142174 0.11648,0.269857 0.17208,0.391708 0.067,0.305959 0.22963,0.694208 0.29353,0.916739 0.14358,0.252084 0.18304,0.550317 0.34003,0.795819 0.21253,1.271124 0.5931,2.794439 0.0822,3.986318 -0.0697,0.288534 -0.12189,0.663363 0.11421,0.890387 0.19026,-0.500402 0.67428,-1.437897 0.65732,-2.042772 0.24194,-0.119181 -0.0383,-0.55576 0.0987,-0.621667 0.19638,0.198755 0.1321,0.518845 0.18449,0.775665 0.003,0.262459 0.0906,0.52369 0.063,0.783413 0.11481,1.151544 -0.0288,0.387337 0.11524,1.151869 0.34612,-1.07964 0.40185,-2.30863 0.13229,-3.643188 -0.11879,-0.111927 -0.19258,-0.132601 -0.10542,-0.543121 0.51317,0.605618 2.09707,2.008288 2.61328,2.2841 -0.5204,-1.208439 -1.83169,-1.918906 -1.66501,-2.115634 -0.074,-0.31019 -0.34658,-0.501738 -0.54364,-0.685229 0.24741,-0.0049 0.51953,0.278358 0.65216,0.505394 0.068,0.215413 0.22438,0.158702 0.18965,-0.05529 0.0312,-0.347083 -0.30439,-0.544086 -0.57774,-0.664043 -0.26016,-0.145568 -0.55928,-0.267028 -0.71624,-0.537435 -0.1478,-0.247465 -0.26764,-0.511905 -0.42685,-0.751374 -0.14486,-0.248568 -0.51655,-0.560782 -0.68574,-0.824757 -0.12523,-0.369117 -0.25779,-0.763156 -0.48266,-1.194757 -0.22766,-0.310947 -0.37938,-0.827665 -0.53692,-1.824697 -0.11413,-0.732739 -0.20654,-1.066228 -0.41651,-1.519285 -0.28414,-0.614008 -0.5195,-0.950552 -1.33015,-1.900142 -0.68128,-0.797277 -0.91388,-1.112472 -1.16841,-1.574583 -0.44522,-0.801296 -0.8797,-2.263103 -1.34513,-4.506184 -0.35394,-1.707854 -0.54065,-2.063893 -1.40922,-2.700094 -0.49301,-0.361815 -0.85844,-0.803914 -1.28364,-1.570446 -0.26727,-0.480229 -0.40423,-0.822246 -0.42995,-1.075904 -0.0343,-0.352887 0.17125,-0.75574 0.43512,-0.852144 0.21615,-0.08281 0.52411,0.0057 0.72553,0.206705 0.0507,0.05183 0.16313,0.234716 0.24805,0.410312 0.68279,1.40277 1.37267,2.058463 2.70578,2.572969 0.28769,0.109731 0.3585,0.120069 0.18551,0.02067 -0.6131,-0.341267 -1.20792,-0.859859 -1.49448,-1.301213 -0.12652,-0.195608 -0.23687,-0.506845 -0.23668,-0.671276 -0.001,-0.432108 0.29989,-0.797559 0.66405,-0.80822 0.15074,-0.0035 0.40655,0.06209 0.5488,0.144694 0.13959,0.08161 0.40279,0.314115 0.56586,0.504879 0.55939,0.649908 1.26856,1.266801 2.32285,2.020548 1.18671,0.851075 1.37409,1.027887 1.61334,1.535824 0.0894,0.191502 0.17277,0.319521 0.23513,0.371553 0.0529,0.04363 0.10688,0.07266 0.1173,0.06666 0.0104,-0.006 0.007,-0.09168 -0.008,-0.189652 -0.0175,-0.0987 -0.0261,-0.230538 -0.0181,-0.293006 0.0149,-0.09881 0.031,-0.126527 0.11421,-0.183451 0.0543,-0.03827 0.16637,-0.08463 0.24443,-0.101803 0.2645,-0.05511 0.42315,-0.0445 1.37459,0.07648 0.36659,0.04578 0.53697,0.04711 0.56741,-5.29e-4 0.0446,-0.06731 -0.18698,-0.146934 -1.20458,-0.414962 -1.14432,-0.299215 -1.24069,-0.334077 -1.79111,-0.679028 -0.49607,-0.306825 -0.88651,-0.667378 -1.30896,-1.204061 -0.54486,-0.692994 -0.88451,-1.395512 -0.9095,-1.881022 -0.009,-0.196248 -0.003,-0.229941 0.0847,-0.444417 0.21223,-0.51565 0.54783,-0.791984 1.03818,-0.856795 0.1676,-0.02245 0.23084,-0.01762 0.50746,0.05684 0.37797,0.101736 0.55694,0.212051 0.7984,0.482657 0.3054,0.349502 0.51368,0.787414 0.62115,1.315683 0.0576,0.276937 0.10452,0.832954 0.0915,1.099674 -0.005,0.127889 0.004,0.159482 0.032,0.131775 0.0863,-0.09133 0.24756,-0.51495 0.38395,-1.021643 0.15408,-0.572426 0.17261,-0.608614 0.35812,-0.708484 0.15843,-0.0866 0.3513,-0.105193 0.55397,-0.05064 0.33141,0.0892 0.46722,0.22861 0.63252,0.640271 0.12369,0.315273 0.22636,0.489954 0.46612,0.77773 0.59996,0.728387 1.55121,1.24298 2.54972,1.385445 0.37955,0.05222 0.38824,0.04259 0.076,-0.117822 -0.58686,-0.307768 -1.12936,-0.715341 -1.35702,-1.026294 -0.10946,-0.14989 -0.18122,-0.342444 -0.18449,-0.504878 -0.004,-0.106707 0.006,-0.142468 0.076,-0.238229 0.26449,-0.360598 0.8583,-0.220872 1.5105,0.357084 l 0.27595,0.241329 -0.0687,-0.171049 c -0.0838,-0.20172 -0.11123,-0.438424 -0.0729,-0.580843 0.0406,-0.150639 0.20633,-0.328875 0.40152,-0.432015 0.26324,-0.137697 0.70744,-0.206107 1.8371,-0.278019 1.74474,-0.109024 2.53671,-0.257453 3.40289,-0.638204 0.66721,-0.296259 1.28823,-0.792827 1.67174,-1.344621 0.13072,-0.19099 0.29548,-0.451931 0.27388,-0.437182 -0.007,0.004 -0.11651,0.08299 -0.24133,0.175699 -1.28867,0.9573 -3.115,1.346866 -5.56142,1.18184 -0.2859,-0.01821 -0.5454,-0.03525 -0.57774,-0.03514 -0.0378,-0.0014 -0.0328,-0.0087 0.0196,-0.01809 0.0428,-0.0061 0.2592,-0.04751 0.4842,-0.08682 1.78707,-0.320868 3.48198,-1.236727 4.53099,-2.449463 0.4307,-0.497967 0.64761,-0.856346 0.79685,-1.312581 l 0.0946,-0.297656 -0.1571,0.201538 c -0.42185,0.541474 -0.94152,0.977305 -1.63452,1.369425 -0.97731,0.553515 -2.2271,0.951482 -3.55069,1.132747 -0.40207,0.05333 -1.15847,0.113816 -1.22421,0.09612 -0.0192,-0.0052 0.096,-0.06221 0.25476,-0.128158 0.51152,-0.208922 0.84862,-0.370917 1.39216,-0.676961 1.13774,-0.636636 1.982,-1.305341 2.74609,-2.16886 0.70583,-0.799888 1.09309,-1.465125 1.29656,-2.221053 0.0877,-0.325927 0.14473,-0.689716 0.11937,-0.769979 -0.005,-0.01591 -0.0796,0.09948 -0.16846,0.254765 -0.68526,1.225459 -1.56755,2.156995 -2.62155,2.76624 -0.63338,0.367042 -1.08498,0.539234 -1.74925,0.671793 -0.34109,0.06681 -1.0452,0.129818 -1.14928,0.101803 -0.0274,-0.0074 0.0347,-0.07593 0.185,-0.208773 1.15541,-1.007856 2.11015,-2.360676 2.72387,-3.855062 0.17052,-0.415262 0.46307,-1.534739 0.51263,-1.959053 0.0728,-0.641314 0.0536,-1.377811 -0.0501,-1.91978 -0.041,-0.20783 -0.0475,-0.215832 -0.0584,-0.110071 h 5.3e-4 c -0.16625,1.326975 -0.70405,2.624475 -1.57975,3.816305 -2.2722,3.083541 -6.64591,5.157793 -10.01954,4.749064 -0.59455,-0.07191 -0.73458,-0.10974 -0.63304,-0.170532 0.0549,-0.02927 0.20395,-0.309021 0.24081,-0.445968 0.0818,-0.31578 0.035,-0.851018 -0.0925,-1.064535 l -0.0568,-0.09508 -0.017,0.16278 c -0.0642,0.587804 -0.63332,1.195477 -1.41439,1.511019 -0.48445,0.195647 -1.01623,0.284538 -1.40198,0.233578 -0.10503,-0.01357 -0.19599,-0.0261 -0.19999,-0.03307 -0.002,-0.0032 0.0274,-0.06903 0.0661,-0.146761 0.1483,-0.28906 0.23714,-0.946645 0.17673,-1.300696 l -0.0305,-0.169499 -0.0915,0.251148 c -0.1804,0.506598 -0.46589,0.90271 -0.8077,1.124996 -0.21447,0.142011 -0.37244,0.193721 -0.58912,0.191203 -0.62119,-0.0057 -1.09064,-0.455264 -0.96531,-0.920874 0.17176,-0.638159 1.14731,-1.380102 2.12441,-1.616439 1.0338,-0.250455 1.85822,-0.771797 2.00608,-1.26659 0.0268,-0.08971 0.0429,-0.170513 0.0372,-0.180867 -0.006,-0.01041 -0.0766,0.0438 -0.15916,0.12144 -0.23584,0.221435 -0.53817,0.396006 -0.7736,0.441316 -0.17676,0.03467 -0.24455,0.03387 -0.44597,-0.01447 -0.13294,-0.02988 -0.26015,-0.07009 -0.28112,-0.09043 -0.0325,-0.03224 -0.0176,-0.04292 0.0863,-0.07958 0.82922,-0.276147 1.59288,-1.453898 1.44798,-2.236039 l -0.0269,-0.151412 -0.0295,0.09767 c -0.16484,0.557782 -0.65485,0.925763 -1.2516,0.938444 l -0.0734,5.29e-4 0.0873,-0.07338 c 0.14684,-0.130837 0.36045,-0.378636 0.47284,-0.545186 0.15347,-0.231859 0.29068,-0.665236 0.30489,-0.958081 0.01,-0.232387 -0.0756,-0.733807 -0.14004,-0.821656 -0.0322,-0.04392 -0.0349,-0.04464 -0.0315,-0.0026 0.004,0.02761 -0.0108,0.17023 -0.03,0.31781 -0.0721,0.529865 -0.28121,0.805285 -0.7369,0.970484 -0.14957,0.05373 -0.19322,0.06272 -0.16847,0.02532 0.0183,-0.02446 0.0923,-0.157142 0.16072,-0.291455 0.15767,-0.312974 0.27676,-0.809582 0.28421,-1.186491 0.006,-0.359735 -0.094,-0.83008 -0.23099,-1.096057 z" />
      <g
         aria-label="XHARPy"
         transform="matrix(0.13705775,0,0,0.13705775,20.178168,54.262017)"
         id="text31238"
         style="font-size:96px;line-height:0;text-align:end;letter-spacing:0px;word-spacing:0px;white-space:pre;shape-inside:url(#rect31240);stroke-width:1.93045">
        <path
           d="m 300.19336,45.532929 v -2.25 l 0.375,-0.375 q 3.14062,-0.04687 4.21875,-0.5625 1.07812,-0.5625 2.76562,-2.671875 1.6875,-2.15625 6.60938,-9 l 12.79687,-17.765625 -8.29687,-14.1093748 q -0.9375,-1.59375 -4.125,-6.140625 -3.14063,-4.5937502 -4.96875,-6.3750002 -1.78125,-1.78125 -2.67188,-2.0625 -0.89062,-0.28125 -4.92187,-0.28125 l -0.42188,-0.421875 v -1.96875 l 0.42188,-0.421875 13.26562,-2.203125 q 1.73438,1.125 3.70313,3.75 2.01562,2.578125 5.8125,9.1406252 l 7.875,13.6875 17.90625,-26.1562502 q 3.98437,0.140625 4.82812,0.140625 0.375,0 4.35938,-0.140625 l 0.375,0.421875 v 2.109375 l -0.375,0.375 q -2.95313,0.140625 -3.9375,0.5625 -0.9375,0.375 -2.48438,1.96875 -1.5,1.59375 -6.1875,7.9218752 l -8.71875,11.8125 -3.51562,4.6875 15.89062,25.6874998 q 2.25,3.65625 3.60938,5.484375 1.40625,1.78125 2.25,2.15625 0.84375,0.328125 3.84375,0.375 l 0.375,0.375 v 2.296875 l -0.375,0.375 q -4.45313,-0.1875 -6.28125,-0.1875 -2.39063,0 -7.21875,0.1875 -2.8125,-4.171875 -5.20313,-8.296875 l -12.32812,-21.046875 -3.42188,4.734375 q -6.75,9.28125 -15.89062,24.609375 -3.04688,-0.1875 -4.78125,-0.1875 -1.78125,0 -4.73438,0.1875 z"
           style="font-family:'Palatino Linotype';-inkscape-font-specification:'Palatino Linotype'"
           id="path844" />
        <path
           d="m 365.53711,-20.467071 q 11.95312,0.375 13.40625,0.375 1.54687,0 13.45312,-0.375 l 0.375,0.328125 v 2.34375 l -0.375,0.328125 q -3.23437,0.09375 -5.01562,0.28125 -1.73438,0.1875 -2.53125,0.703125 -0.79688,0.515625 -1.07813,2.4375 -0.23437,1.875 -0.23437,5.2500002 l -0.0937,10.78125 v 6.5625 q 10.26562,0.28125 19.45312,0.28125 12.5625,0 19.125,-0.28125 v -6.5625 l -0.0937,-9.140625 q -0.0469,-5.3437502 -0.28125,-6.8906252 -0.23437,-1.546875 -0.65625,-2.0625 -0.42187,-0.515625 -1.6875,-0.84375 -1.26562,-0.328125 -6.28125,-0.515625 l -0.32812,-0.328125 v -2.34375 l 0.32812,-0.328125 q 12,0.375 13.45313,0.375 1.59375,0 13.45312,-0.375 l 0.375,0.328125 v 2.34375 l -0.375,0.328125 q -3.28125,0.09375 -5.0625,0.28125 -1.73437,0.1875 -2.53125,0.703125 -0.79687,0.515625 -1.03125,2.4375 -0.23437,1.875 -0.28125,5.2500002 l -0.0937,10.78125 V 23.689179 l 0.0937,9.140625 q 0.0469,5.296875 0.28125,6.84375 0.23438,1.546875 0.65625,2.0625 0.46875,0.515625 1.6875,0.890625 1.26563,0.328125 6.28125,0.515625 l 0.375,0.28125 v 2.34375 l -0.375,0.375 q -12,-0.375 -13.45312,-0.375 -1.5,0 -13.45313,0.375 l -0.32812,-0.375 v -2.34375 l 0.32812,-0.28125 q 4.40625,-0.1875 5.85938,-0.46875 1.45312,-0.28125 1.92187,-0.703125 0.46875,-0.46875 0.79688,-1.921875 0.32812,-1.453125 0.32812,-6.46875 l 0.0937,-9.890625 v -10.6875 q -13.875,-0.28125 -19.45312,-0.28125 -5.71875,0 -19.125,0.28125 v 10.6875 l 0.0469,9.140625 q 0.0469,5.296875 0.28125,6.84375 0.23438,1.546875 0.65625,2.0625 0.46875,0.515625 1.73438,0.890625 1.26562,0.328125 6.23437,0.515625 l 0.375,0.28125 v 2.34375 l -0.375,0.375 q -11.95312,-0.375 -13.45312,-0.375 -1.45313,0 -13.40625,0.375 l -0.375,-0.375 v -2.34375 l 0.375,-0.28125 q 4.35937,-0.1875 5.8125,-0.46875 1.45312,-0.28125 1.92187,-0.703125 0.51563,-0.46875 0.79688,-1.921875 0.32812,-1.453125 0.375,-6.46875 l 0.0469,-9.890625 V 1.9860542 l -0.0937,-9.140625 q -0.0469,-5.3437502 -0.28125,-6.8906252 -0.1875,-1.546875 -0.65625,-2.0625 -0.42187,-0.515625 -1.6875,-0.84375 -1.26562,-0.328125 -6.23437,-0.515625 l -0.375,-0.328125 v -2.34375 z"
           style="font-family:'Palatino Linotype';-inkscape-font-specification:'Palatino Linotype'"
           id="path846" />
        <path
           d="m 444.70898,46.142304 -0.42187,-0.375 v -2.4375 l 0.42187,-0.375 q 3.42188,-0.04687 4.40625,-0.328125 0.98438,-0.328125 1.73438,-1.21875 0.79687,-0.9375 3.14062,-6 l 4.92188,-10.6875 12.75,-28.8749998 q 3.60937,-8.4843752 7.17187,-16.9687502 h 3.04688 l 20.01562,47.0625 2.67188,6.28125 q 1.17187,2.671875 2.67187,5.8125 1.54688,3.140625 2.10938,3.703125 0.60937,0.5625 1.45312,0.890625 0.89063,0.28125 3.89063,0.328125 l 0.375,0.375 v 2.4375 l -0.375,0.375 q -4.96875,-0.421875 -8.95313,-0.421875 -7.78125,0.234375 -15.5625,0.421875 l -0.375,-0.375 v -2.4375 l 0.375,-0.375 q 5.25,-0.09375 6.5625,-0.421875 1.3125,-0.375 1.3125,-1.640625 0,-1.03125 -0.65625,-2.71875 l -5.76562,-14.296875 h -27.14063 l -5.10937,12 q -1.35938,3.234375 -1.35938,4.734375 0,1.171875 1.26563,1.734375 1.26562,0.5625 6.375,0.609375 l 0.42187,0.375 v 2.4375 l -0.375,0.375 q -6.04687,-0.375 -10.59375,-0.375 -5.15625,0 -10.40625,0.375 z m 21.375,-26.296875 h 23.71875 L 478.03711,-8.4201958 Z m 14.20313,-43.78125 z m -1.07813,72.515625 z"
           style="font-family:'Palatino Linotype';-inkscape-font-specification:'Palatino Linotype'"
           id="path848" />
        <path
           d="m 519.28711,-20.138946 0.375,-0.328125 q 8.57812,0.375 13.35937,0.375 5.29688,0 14.29688,-0.328125 3.32812,-0.09375 4.82812,-0.09375 11.85938,0 16.07813,4.3125 4.21875,4.3125 4.21875,10.2187502 0,3.9375 -2.0625,7.734375 -2.0625,3.796875 -6.09375,6.515625 -4.03125,2.6718748 -11.10938,4.0312498 1.3125,1.828125 4.73438,6.328125 l 6.65625,8.8125 q 3.23437,4.359375 6.9375,9.234375 3.70312,4.828125 4.78125,5.484375 1.07812,0.609375 1.82812,0.75 0.79688,0.140625 2.48438,0.140625 l 0.375,0.375 v 2.203125 l -0.42188,0.421875 q -2.25,-0.28125 -5.34375,-0.28125 -3.32812,0 -7.26562,0.28125 -3.23438,-3.9375 -10.17188,-13.640625 -8.0625,-11.25 -16.5,-20.859375 l 0.46875,-1.453125 q 2.4375,0.140625 3.79688,0.140625 8.10937,0 12.70312,-3.8906248 4.59375,-3.890625 4.59375,-10.78125 0,-6.1875002 -4.125,-9.3281252 -4.125,-3.1875 -11.15625,-3.1875 -4.92187,0 -9.28125,1.359375 -0.70312,1.03125 -0.70312,17.5781252 V 23.689179 l 0.0469,9.140625 q 0.0469,5.296875 0.28125,6.84375 0.23438,1.546875 0.65625,2.0625 0.46875,0.515625 1.73438,0.890625 1.26562,0.328125 6.23437,0.515625 l 0.375,0.28125 v 2.34375 l -0.375,0.375 q -0.23437,0 -8.25,-0.28125 -3.32812,-0.09375 -5.20312,-0.09375 -1.45313,0 -13.40625,0.375 l -0.375,-0.375 v -2.34375 l 0.375,-0.28125 q 4.35937,-0.1875 5.8125,-0.46875 1.45312,-0.28125 1.92187,-0.703125 0.51563,-0.46875 0.79688,-1.921875 0.32812,-1.453125 0.375,-6.46875 l 0.0469,-9.890625 V 1.9860542 l -0.0937,-9.140625 q -0.0469,-5.3437502 -0.28125,-6.8906252 -0.1875,-1.546875 -0.65625,-2.0625 -0.42187,-0.515625 -1.6875,-0.84375 -1.26562,-0.328125 -6.23437,-0.515625 l -0.375,-0.328125 z"
           style="font-family:'Palatino Linotype';-inkscape-font-specification:'Palatino Linotype'"
           id="path850" />
        <path
           d="m 584.20898,-20.467071 q 11.8125,0.375 15.04688,0.375 4.40625,0 9.89062,-0.234375 5.8125,-0.1875 7.17188,-0.1875 6.5625,0 10.82812,1.359375 4.3125,1.359375 7.125,4.96875 2.8125,3.609375 2.8125,8.7187502 0,4.21875 -1.96875,8.15625 -1.96875,3.9375 -5.48437,6.703125 -3.51563,2.7656248 -7.125,3.9843748 -3.60938,1.171875 -7.5,1.171875 -2.90625,0 -6.46875,-0.65625 l -0.79688,-2.859375 0.42188,-0.46875 q 3.51562,0.796875 5.71875,0.796875 6.14062,0 9.84375,-4.0312498 3.75,-4.078125 3.75,-10.40625 0,-6.375 -3.89063,-10.1718752 -3.84375,-3.796875 -11.67187,-3.796875 -4.26563,0 -9.375,1.59375 -0.42188,3.609375 -0.42188,17.4375002 V 23.689179 l 0.0469,9.140625 q 0.0469,5.296875 0.28125,6.84375 0.23437,1.546875 0.65625,2.0625 0.46875,0.515625 1.73437,0.890625 1.26563,0.328125 6.23438,0.515625 l 0.375,0.28125 v 2.34375 l -0.375,0.375 q -11.95313,-0.375 -13.45313,-0.375 -1.59375,0 -13.40625,0.375 l -0.375,-0.375 v -2.34375 l 0.375,-0.28125 q 4.35938,-0.1875 5.8125,-0.46875 1.45313,-0.28125 1.92188,-0.703125 0.51562,-0.46875 0.79687,-1.921875 0.32813,-1.453125 0.375,-6.46875 l 0.0469,-9.890625 V 1.9860542 l -0.0937,-9.140625 q -0.0469,-5.3437502 -0.28125,-6.8906252 -0.1875,-1.546875 -0.65625,-2.0625 -0.42188,-0.515625 -1.6875,-0.84375 -1.26563,-0.328125 -6.23438,-0.515625 l -0.375,-0.328125 v -2.34375 z"
           style="font-family:'Palatino Linotype';-inkscape-font-specification:'Palatino Linotype'"
           id="path852" />
        <path
           d="m 641.53711,71.220429 q 1.59375,-3.9375 2.39062,-7.21875 h 1.125 q 2.29688,2.484375 4.96875,2.484375 3.32813,0 5.76563,-3.328125 2.48437,-3.28125 6.98437,-14.578125 -1.78125,-5.015625 -3.60937,-9.46875 l -7.45313,-18.46875 q -1.17187,-2.859375 -3.46875,-8.15625 -2.29687,-5.3437498 -2.76562,-5.8593748 -0.42188,-0.5625 -1.125,-1.03125 -0.70313,-0.46875 -3.79688,-0.890625 l -0.375,-0.375 v -1.875 l 0.42188,-0.375 q 5.39062,0.328125 11.0625,0.328125 6.65625,0 10.26562,-0.328125 l 0.375,0.375 v 1.875 l -0.32812,0.375 q -0.51563,0.046875 -2.90625,0.234375 -2.34375,0.140625 -2.95313,0.75 -0.5625,0.5625 -0.5625,1.3125 0,0.796875 1.45313,5.2031248 1.45312,4.359375 2.8125,7.734375 l 2.95312,7.3125 q 2.90625,7.21875 4.5,10.640625 l 2.48438,-5.484375 q 1.3125,-3 3.75,-9.09375 l 3.89062,-9.9375 q 1.5,-3.8437498 1.6875,-4.7812498 0.23438,-0.9375 0.23438,-1.359375 0,-1.03125 -0.75,-1.40625 -0.75,-0.375 -3.32813,-0.65625 l -1.96875,-0.28125 -0.32812,-0.375 v -2.0625 l 0.375,-0.375 q 3.9375,0.328125 9.32812,0.328125 4.92188,0 7.875,-0.328125 l 0.375,0.375 v 2.0625 l -0.375,0.375 q -1.73437,0.046875 -2.76562,0.46875 -1.03125,0.421875 -1.96875,1.5 -0.9375,1.078125 -3.375,6.0937498 -2.4375,4.96875 -4.875,10.3125 l -4.59375,10.078125 -10.82813,25.3125 q -1.40625,3.28125 -3.51562,7.03125 -2.0625,3.75 -5.10938,5.390625 -3,1.6875 -6.375,1.6875 -2.95312,0 -5.57812,-1.546875 z m 25.07812,-73.0781248 z m 11.01563,50.4374998 z"
           style="font-family:'Palatino Linotype';-inkscape-font-specification:'Palatino Linotype'"
           id="path854" />
      </g>
    </g>
  </g>
  <metadata
     id="metadata902">
    <rdf:RDF>
      <cc:Work
         rdf:about="">
        <dc:title>XHARPy Logo</dc:title>
      </cc:Work>
    </rdf:RDF>
  </metadata>
</svg>
