<?xml version="1.0" encoding="UTF-8" standalone="no"?>
<!-- Created with Inkscape (http://www.inkscape.org/) -->

<svg
   width="86.017685mm"
   height="45.145512mm"
   viewBox="0 0 86.017685 45.145512"
   version="1.1"
   id="svg27920"
   inkscape:version="1.1 (c68e22c387, 2021-05-23)"
   sodipodi:docname="XHARPy_logo.svg"
   xmlns:inkscape="http://www.inkscape.org/namespaces/inkscape"
   xmlns:sodipodi="http://sodipodi.sourceforge.net/DTD/sodipodi-0.dtd"
   xmlns="http://www.w3.org/2000/svg"
   xmlns:svg="http://www.w3.org/2000/svg">
  <sodipodi:namedview
     id="namedview27922"
     pagecolor="#ffffff"
     bordercolor="#666666"
     borderopacity="1.0"
     inkscape:pageshadow="2"
     inkscape:pageopacity="0.0"
     inkscape:pagecheckerboard="0"
     inkscape:document-units="mm"
     showgrid="false"
     inkscape:zoom="2"
     inkscape:cx="247.25"
     inkscape:cy="120.25"
     inkscape:window-width="1920"
     inkscape:window-height="1137"
     inkscape:window-x="-8"
     inkscape:window-y="-8"
     inkscape:window-maximized="1"
     inkscape:current-layer="layer1"
     fit-margin-top="5"
     fit-margin-left="5"
     lock-margins="true"
     fit-margin-right="5"
     fit-margin-bottom="5" />
  <defs
     id="defs27917">
    <rect
       x="127.28955"
       y="18.184221"
       width="565.5293"
       height="145.47377"
       id="rect31240" />
    <rect
       x="127.28955"
       y="18.184221"
       width="565.5293"
       height="145.47377"
       id="rect31240-7" />
    <rect
       x="127.28955"
       y="18.184221"
       width="565.5293"
       height="145.47377"
       id="rect31240-7-5" />
    <rect
       x="127.28955"
       y="18.184221"
       width="565.5293"
       height="145.47377"
       id="rect31240-7-5-6" />
  </defs>
  <g
     inkscape:label="Ebene 1"
     inkscape:groupmode="layer"
     id="layer1"
     transform="translate(-56.321995,-31.543883)">
    <g
       id="g4030">
      <g
         id="g4023">
        <path
           id="path27983"
           style="fill:#000000;stroke:none;stroke-width:0.133333"
           d="M 236.33789 18.898438 L 236.4082 19.916016 C 236.48266 21.123941 236.15572 22.83487 235.67383 23.759766 C 234.7582 25.511607 232.79224 27.00103 230.19922 27.890625 C 229.37751 28.180099 229.12207 28.222512 228.75977 28.125 C 227.92128 27.899324 227.58888 26.989871 227.91211 25.789062 L 228.05859 25.240234 L 227.72266 25.416016 C 226.98217 25.8162 225.86696 27.568391 225.85547 28.353516 C 225.85743 28.675985 225.51248 28.805621 225.01562 28.671875 C 224.57047 28.552064 224.3666 28.19808 224.33984 27.513672 C 224.31339 26.707056 224.32425 26.742513 224.17383 26.890625 C 224.11033 26.962285 223.92544 27.280027 223.76367 27.591797 C 223.52367 28.071147 223.45869 28.353333 223.36133 29.292969 C 223.27138 30.245693 223.21675 30.486283 222.99414 30.859375 C 222.67515 31.38414 222.09414 31.770515 221.74219 31.675781 C 221.33846 31.56712 221.27734 31.296706 221.52539 30.664062 C 221.74082 30.111412 221.73433 30.098812 221.5 30.224609 C 221.35827 30.297592 221.09344 30.536955 220.90234 30.751953 C 220.61548 31.07446 220.52894 31.273173 220.44141 31.804688 C 220.37753 32.16499 220.3314 32.54022 220.34766 32.644531 C 220.37033 32.884191 219.87051 32.894387 219.63281 32.664062 C 219.4359 32.488957 219.3754 31.927351 219.50391 31.451172 C 219.65169 30.902536 219.45034 30.993545 219.06445 31.644531 C 218.77456 32.143799 218.66353 32.469235 218.45898 33.435547 L 218.21484 34.634766 L 217.2832 35.451172 C 216.09167 36.49595 215.7777 36.843718 215.23828 37.775391 C 214.72873 38.63738 214.54482 39.442819 214.65234 40.404297 C 214.73474 41.170298 214.64433 41.456583 214.00586 42.638672 C 213.64038 43.295225 213.49875 43.657461 213.54883 43.759766 C 213.58284 43.84609 213.82873 44.00021 214.07617 44.111328 C 214.46316 44.282201 214.60107 44.431966 214.91602 44.994141 C 215.23085 45.5563 215.32144 45.878694 215.40625 46.800781 C 215.56423 48.441875 215.63557 48.707145 216.01953 49.054688 C 216.35251 49.344199 216.38405 49.352436 217.6875 49.458984 C 220.94349 49.73591 222.28356 50.329681 223.19141 51.90625 C 224.0037 53.301663 224.11511 55.319145 223.46484 56.787109 C 222.72481 58.464093 221.1806 59.74673 218.08203 61.277344 C 215.46875 62.572244 214.90562 63.053087 214.6875 64.193359 C 214.49059 65.172809 215.13919 66.26871 217.66992 69.28125 C 221.72604 74.092071 223.4807 76.395871 224.45703 78.212891 C 225.75031 80.625915 226.02044 82.019799 226.01953 86.271484 C 226.02146 90.057743 226.32327 92.115235 227.22461 94.333984 C 227.92624 96.099262 228.86987 97.618366 230.76953 100.00586 C 234.38488 104.59813 236.16442 107.47503 241.53906 117.49219 C 242.86262 119.95776 244.5136 122.89975 245.21875 124.0332 C 248.80907 129.87323 250.68986 133.40065 252.375 137.45117 C 252.599 137.98852 252.81523 138.4711 253.02539 138.93164 C 253.27863 140.08802 253.89326 141.55542 254.13477 142.39648 C 254.67743 143.34924 254.82657 144.47642 255.41992 145.4043 C 256.22318 150.20855 257.66158 155.96596 255.73047 160.4707 C 255.46704 161.56122 255.26976 162.9779 256.16211 163.83594 C 256.8812 161.94466 258.71059 158.40137 258.64648 156.11523 C 259.5609 155.66478 258.50174 154.01472 259.01953 153.76562 C 259.76175 154.51682 259.51879 155.72661 259.7168 156.69727 C 259.72814 157.68924 260.05939 158.67657 259.95508 159.6582 C 260.38901 164.01049 259.84634 161.12215 260.39062 164.01172 C 261.6988 159.93119 261.90943 155.28619 260.89062 150.24219 C 260.44165 149.81916 260.16276 149.74102 260.49219 148.18945 C 262.43173 150.4784 268.41811 155.77983 270.36914 156.82227 C 268.40227 152.25494 263.4462 149.56971 264.07617 148.82617 C 263.79649 147.6538 262.76628 146.92984 262.02148 146.23633 C 262.95658 146.21781 263.98505 147.28839 264.48633 148.14648 C 264.74334 148.96064 265.33439 148.7463 265.20312 147.9375 C 265.32105 146.62569 264.05267 145.88111 263.01953 145.42773 C 262.03625 144.87755 260.90573 144.41849 260.3125 143.39648 C 259.75389 142.46118 259.30096 141.46172 258.69922 140.55664 C 258.15169 139.61717 256.7469 138.43715 256.10742 137.43945 C 255.63414 136.04436 255.13311 134.55508 254.2832 132.92383 C 253.42276 131.7486 252.84933 129.79565 252.25391 126.02734 C 251.82255 123.25793 251.47327 121.9975 250.67969 120.28516 C 249.60577 117.9645 248.71622 116.69252 245.65234 113.10352 C 243.07743 110.09019 242.19833 108.8989 241.23633 107.15234 C 239.55361 104.12382 237.91145 98.59888 236.15234 90.121094 C 234.81462 83.666212 234.10896 82.320555 230.82617 79.916016 C 228.96283 78.548526 227.58166 76.877598 225.97461 73.980469 C 224.96446 72.16543 224.44682 70.87277 224.34961 69.914062 C 224.21997 68.580316 224.99687 67.057721 225.99414 66.693359 C 226.81109 66.380377 227.97506 66.714724 228.73633 67.474609 C 228.92795 67.670502 229.35287 68.361724 229.67383 69.025391 C 232.25445 74.327202 234.86186 76.80541 239.90039 78.75 C 240.98772 79.164731 241.25535 79.203806 240.60156 78.828125 C 238.28433 77.538297 236.03619 75.578266 234.95312 73.910156 C 234.47494 73.17085 234.05784 71.994522 234.05859 71.373047 C 234.05481 69.739883 235.19201 68.358653 236.56836 68.318359 C 237.13809 68.305131 238.10494 68.553042 238.64258 68.865234 C 239.17016 69.173682 240.16492 70.05244 240.78125 70.773438 C 242.89548 73.229783 245.57583 75.561349 249.56055 78.410156 C 254.04575 81.626818 254.75395 82.295082 255.6582 84.214844 C 255.99609 84.938631 256.31118 85.422484 256.54688 85.619141 C 256.74681 85.784041 256.95085 85.893771 256.99023 85.871094 C 257.02954 85.848417 257.01568 85.524589 256.95898 85.154297 C 256.89284 84.781258 256.86039 84.282975 256.89062 84.046875 C 256.94694 83.67342 257.00788 83.568661 257.32227 83.353516 C 257.52749 83.208873 257.95106 83.033648 258.24609 82.96875 C 259.24578 82.76046 259.84541 82.800565 263.44141 83.257812 C 264.82694 83.430839 265.47089 83.435852 265.58594 83.255859 C 265.7545 83.001459 264.87925 82.700519 261.0332 81.6875 C 256.70821 80.556609 256.344 80.424846 254.26367 79.121094 C 252.38876 77.96144 250.91307 76.598721 249.31641 74.570312 C 247.25709 71.951123 245.97339 69.295936 245.87891 67.460938 C 245.84489 66.719213 245.86889 66.591868 246.19922 65.78125 C 247.00135 63.832337 248.26976 62.787924 250.12305 62.542969 C 250.7565 62.458118 250.99552 62.476389 252.04102 62.757812 C 253.46956 63.142327 254.14599 63.559265 255.05859 64.582031 C 256.21286 65.90298 257.00006 67.558084 257.40625 69.554688 C 257.62395 70.601382 257.80131 72.702862 257.75195 73.710938 C 257.73306 74.194298 257.76722 74.313704 257.87305 74.208984 C 258.19922 73.8638 258.80873 72.262716 259.32422 70.347656 C 259.90657 68.184156 259.97659 68.047383 260.67773 67.669922 C 261.27652 67.342615 262.00549 67.272342 262.77148 67.478516 C 264.02406 67.815649 264.53735 68.342553 265.16211 69.898438 C 265.6296 71.09002 266.01765 71.750233 266.92383 72.837891 C 269.19139 75.590849 272.78665 77.535765 276.56055 78.074219 C 277.99507 78.271586 278.02793 78.235199 276.84766 77.628906 C 274.6296 76.465689 272.5792 74.925255 271.71875 73.75 C 271.30504 73.183487 271.03384 72.455721 271.02148 71.841797 C 271.00637 71.438495 271.04478 71.303338 271.30859 70.941406 C 272.30824 69.578516 274.55257 70.106615 277.01758 72.291016 L 278.06055 73.203125 L 277.80078 72.556641 C 277.48406 71.794234 277.38037 70.899605 277.52539 70.361328 C 277.67884 69.791984 278.30524 69.118336 279.04297 68.728516 C 280.03789 68.208086 281.71675 67.949528 285.98633 67.677734 C 292.58062 67.265675 295.57391 66.704684 298.84766 65.265625 C 301.36939 64.145906 303.71653 62.269114 305.16602 60.183594 C 305.66008 59.461742 306.28281 58.475506 306.20117 58.53125 C 306.17472 58.546368 305.76082 58.844901 305.28906 59.195312 C 300.4185 62.813454 293.51584 64.285826 284.26953 63.662109 C 283.18896 63.593284 282.20817 63.528881 282.08594 63.529297 C 281.94307 63.524006 281.96211 63.496541 282.16016 63.460938 C 282.32192 63.437882 283.13984 63.281386 283.99023 63.132812 C 290.74451 61.920083 297.15047 58.458569 301.11523 53.875 C 302.74308 51.99292 303.5629 50.638415 304.12695 48.914062 L 304.48438 47.789062 L 303.89062 48.550781 C 302.29623 50.597297 300.3321 52.244534 297.71289 53.726562 C 294.01912 55.818588 289.29551 57.322716 284.29297 58.007812 C 282.77333 58.209375 279.91448 58.43798 279.66602 58.371094 C 279.59345 58.35144 280.02906 58.135982 280.62891 57.886719 C 282.56221 57.097092 283.8363 56.484827 285.89062 55.328125 C 290.19074 52.921942 293.38163 50.394553 296.26953 47.130859 C 298.93724 44.107661 300.4009 41.593379 301.16992 38.736328 C 301.50139 37.504478 301.71694 36.129528 301.62109 35.826172 C 301.6022 35.76604 301.32011 36.20217 300.98438 36.789062 C 298.39442 41.420719 295.05979 44.941486 291.07617 47.244141 C 288.68229 48.63139 286.97543 49.282193 284.46484 49.783203 C 283.17568 50.035713 280.51447 50.273852 280.12109 50.167969 C 280.01753 50.14 280.25229 49.88099 280.82031 49.378906 C 285.18722 45.569687 288.79566 40.456667 291.11523 34.808594 C 291.75972 33.2391 292.86542 29.008007 293.05273 27.404297 C 293.32788 24.980433 293.25522 22.196824 292.86328 20.148438 C 292.70832 19.362938 292.68377 19.332695 292.64258 19.732422 L 292.64453 19.732422 C 292.01618 24.74776 289.98356 29.651696 286.67383 34.15625 C 278.08599 45.810578 261.55542 53.650271 248.80469 52.105469 C 246.55757 51.833683 246.02834 51.690703 246.41211 51.460938 C 246.61961 51.350311 247.18295 50.292986 247.32227 49.775391 C 247.63143 48.581891 247.45455 46.558943 246.97266 45.751953 L 246.75781 45.392578 L 246.69336 46.007812 C 246.45071 48.22943 244.29973 50.52615 241.34766 51.71875 C 239.51666 52.458203 237.50678 52.794167 236.04883 52.601562 C 235.65186 52.550274 235.30809 52.502906 235.29297 52.476562 C 235.28541 52.464468 235.3967 52.215665 235.54297 51.921875 C 236.10347 50.829365 236.43926 48.344005 236.21094 47.005859 L 236.0957 46.365234 L 235.75 47.314453 C 235.06817 49.229154 233.98915 50.72627 232.69727 51.566406 C 231.88671 52.103141 231.28965 52.298579 230.4707 52.289062 C 228.1229 52.267519 226.34858 50.56838 226.82227 48.808594 C 227.47144 46.396654 231.15855 43.592461 234.85156 42.699219 C 238.7588 41.752617 241.87472 39.782193 242.43359 37.912109 C 242.53489 37.573048 242.59576 37.267649 242.57422 37.228516 C 242.55154 37.189171 242.28469 37.394065 241.97266 37.6875 C 241.08129 38.52442 239.93864 39.184218 239.04883 39.355469 C 238.38076 39.486505 238.12452 39.483484 237.36328 39.300781 C 236.86083 39.187849 236.38004 39.03586 236.30078 38.958984 C 236.17795 38.837132 236.23426 38.796761 236.62695 38.658203 C 239.76101 37.614498 242.64726 33.163155 242.09961 30.207031 L 241.99805 29.634766 L 241.88672 30.003906 C 241.2637 32.112059 239.41168 33.502853 237.15625 33.550781 L 236.87891 33.552734 L 237.20898 33.275391 C 237.76397 32.780889 238.57131 31.844324 238.99609 31.214844 C 239.57614 30.338526 240.09473 28.700566 240.14844 27.59375 C 240.18623 26.715437 239.86273 24.820309 239.61914 24.488281 C 239.49744 24.322284 239.48715 24.319549 239.5 24.478516 C 239.51512 24.582868 239.45929 25.121905 239.38672 25.679688 C 239.11421 27.682327 238.32386 28.723282 236.60156 29.347656 C 236.03626 29.55073 235.8713 29.584714 235.96484 29.443359 C 236.03401 29.350912 236.31363 28.849437 236.57227 28.341797 C 237.16822 27.158903 237.61829 25.28196 237.64648 23.857422 C 237.66916 22.497794 237.29108 20.720111 236.77344 19.714844 L 236.33789 18.898438 z "
           transform="matrix(0.26458333,0,0,0.26458333,56.321995,31.543883)" />
        <text
           xml:space="preserve"
           transform="matrix(0.13705775,0,0,0.13705775,20.178168,54.262017)"
           id="text31238"
           style="font-style:normal;font-weight:normal;font-size:96px;line-height:0;font-family:sans-serif;text-align:end;letter-spacing:0px;word-spacing:0px;white-space:pre;shape-inside:url(#rect31240);fill:#000000;fill-opacity:1;stroke:none;stroke-width:1.93045"><tspan
             x="298.74023"
             y="45.767304"
             id="tspan4048"><tspan
               style="font-family:'Palatino Linotype';-inkscape-font-specification:'Palatino Linotype'"
               id="tspan4046">XHARPy</tspan></tspan></text>
      </g>
    </g>
  </g>
</svg>
