<?xml version="1.0" encoding="UTF-8" standalone="no"?>
<!-- Created with Inkscape (http://www.inkscape.org/) -->

<svg
   xmlns:dc="http://purl.org/dc/elements/1.1/"
   xmlns:cc="http://creativecommons.org/ns#"
   xmlns:rdf="http://www.w3.org/1999/02/22-rdf-syntax-ns#"
   xmlns:svg="http://www.w3.org/2000/svg"
   xmlns="http://www.w3.org/2000/svg"
   xmlns:sodipodi="http://sodipodi.sourceforge.net/DTD/sodipodi-0.dtd"
   xmlns:inkscape="http://www.inkscape.org/namespaces/inkscape"
   width="80.017548mm"
   height="42.394588mm"
   viewBox="0 0 80.017548 42.394589"
   version="1.1"
   id="svg27920"
   inkscape:version="0.92.5 (2060ec1f9f, 2020-04-08)"
   sodipodi:docname="XHARPy_logo.svg">
  <title
     id="title904">XHARPy Logo</title>
  <sodipodi:namedview
     id="namedview27922"
     pagecolor="#ffffff"
     bordercolor="#666666"
     borderopacity="1.0"
     inkscape:pageshadow="2"
     inkscape:pageopacity="0.0"
     inkscape:pagecheckerboard="0"
     inkscape:document-units="mm"
     showgrid="false"
     inkscape:zoom="16"
     inkscape:cx="229.56348"
     inkscape:cy="29.703116"
     inkscape:window-width="1848"
     inkscape:window-height="1016"
     inkscape:window-x="72"
     inkscape:window-y="27"
     inkscape:window-maximized="1"
     inkscape:current-layer="layer1"
     fit-margin-top="2"
     fit-margin-left="2"
     lock-margins="true"
     fit-margin-right="2"
     fit-margin-bottom="2" />
  <defs
     id="defs27917">
    <rect
       x="127.28955"
       y="18.184221"
       width="565.5293"
       height="145.47377"
       id="rect31240" />
    <rect
       x="127.28955"
       y="18.184221"
       width="565.5293"
       height="145.47377"
       id="rect31240-7" />
    <rect
       x="127.28955"
       y="18.184221"
       width="565.5293"
       height="145.47377"
       id="rect31240-7-5" />
    <rect
       x="127.28955"
       y="18.184221"
       width="565.5293"
       height="145.47377"
       id="rect31240-7-5-6" />
  </defs>
  <g
     inkscape:label="Ebene 1"
     inkscape:groupmode="layer"
     id="layer1"
     transform="translate(-59.321994,-34.544095)">
    <path
       inkscape:connector-curvature="0"
       d="m 118.85306,36.544095 0.0186,0.269234 c 0.0197,0.319597 -0.0668,0.77228 -0.1943,1.016992 -0.24226,0.463508 -0.76242,0.857584 -1.44849,1.092956 -0.21741,0.07659 -0.285,0.08781 -0.38086,0.06201 -0.22185,-0.05971 -0.30979,-0.300336 -0.22427,-0.61805 l 0.0388,-0.145211 -0.0889,0.04651 c -0.19592,0.105882 -0.49099,0.569483 -0.49403,0.777214 5.3e-4,0.08532 -0.0907,0.119619 -0.22221,0.08423 -0.11777,-0.0317 -0.17172,-0.125358 -0.1788,-0.306441 -0.007,-0.213417 -0.004,-0.204036 -0.0439,-0.164848 -0.0168,0.01896 -0.0657,0.103029 -0.10852,0.185519 -0.0635,0.126828 -0.0807,0.201489 -0.10645,0.450101 -0.0238,0.252075 -0.0383,0.315731 -0.0972,0.414445 -0.0844,0.138844 -0.23812,0.241073 -0.33124,0.216008 -0.10682,-0.02875 -0.12299,-0.100297 -0.0574,-0.267684 0.057,-0.146222 0.0553,-0.149556 -0.007,-0.116272 -0.0375,0.01931 -0.10757,0.08264 -0.15813,0.139526 -0.0759,0.08533 -0.0988,0.137906 -0.12196,0.278536 -0.0169,0.09533 -0.0291,0.19461 -0.0248,0.222209 0.006,0.06341 -0.12625,0.06611 -0.18914,0.0052 -0.0521,-0.04633 -0.0681,-0.194921 -0.0341,-0.32091 0.0391,-0.14516 -0.0142,-0.121081 -0.11628,0.05116 -0.0767,0.132098 -0.10607,0.218203 -0.16019,0.473873 l -0.0646,0.317293 -0.24649,0.216008 c -0.31526,0.276431 -0.39833,0.368444 -0.54106,0.614949 -0.13481,0.228068 -0.18347,0.441174 -0.15503,0.695565 0.0218,0.202671 -0.002,0.278418 -0.17104,0.591179 -0.0967,0.173713 -0.13418,0.269554 -0.12093,0.296622 0.009,0.02284 0.0741,0.06362 0.13953,0.09302 0.10239,0.04521 0.13888,0.08484 0.22221,0.233577 0.0833,0.148738 0.10727,0.234038 0.12971,0.478007 0.0418,0.434206 0.0607,0.504392 0.16226,0.596346 0.0881,0.0766 0.0965,0.07878 0.44132,0.10697 0.86148,0.07327 1.21604,0.230372 1.45624,0.647506 0.21492,0.369203 0.2444,0.902995 0.0723,1.291394 -0.1958,0.443702 -0.60437,0.783067 -1.4242,1.188041 -0.69143,0.342609 -0.84042,0.469832 -0.89813,0.771529 -0.0521,0.259147 0.11951,0.549104 0.7891,1.346172 1.07318,1.272863 1.53743,1.88241 1.79575,2.363163 0.34218,0.638446 0.41365,1.007244 0.41341,2.132169 5.3e-4,1.001781 0.0804,1.546159 0.31885,2.133203 0.18564,0.467063 0.43531,0.868993 0.93792,1.500684 0.95656,1.215039 1.4274,1.976218 2.84944,4.626592 0.35019,0.652349 0.78702,1.43075 0.97359,1.730642 0.94994,1.545175 1.44756,2.478471 1.89342,3.550171 0.0593,0.142174 0.11648,0.269857 0.17208,0.391708 0.61194,1.77838 1.33768,4.133372 0.71576,5.698876 -0.0697,0.288534 -0.12189,0.663363 0.11421,0.890387 0.35334,-0.917763 0.77662,-1.898324 0.75602,-2.664439 0.19638,0.198755 0.1321,0.518845 0.18449,0.775665 0.003,0.262459 0.0906,0.52369 0.063,0.783413 0.11481,1.151544 -0.0288,0.387337 0.11524,1.151869 0.34612,-1.07964 0.40185,-2.30863 0.13229,-3.643188 -0.11879,-0.111927 -0.19258,-0.132601 -0.10542,-0.543121 0.51317,0.605618 2.09707,2.008288 2.61328,2.2841 -0.5204,-1.208439 -1.83169,-1.918906 -1.66501,-2.115634 -0.074,-0.31019 -0.34658,-0.501738 -0.54364,-0.685229 0.24741,-0.0049 0.51953,0.278358 0.65216,0.505394 0.068,0.215413 0.22438,0.158702 0.18965,-0.05529 0.0312,-0.347083 -0.30439,-0.544086 -0.57774,-0.664043 -0.26016,-0.145568 -0.55928,-0.267028 -0.71624,-0.537435 -0.1478,-0.247465 -0.26764,-0.511905 -0.42685,-0.751374 -0.14486,-0.248568 -0.51655,-0.560782 -0.68574,-0.824757 -0.12523,-0.369117 -0.25779,-0.763156 -0.48266,-1.194757 -0.22766,-0.310947 -0.37938,-0.827665 -0.53692,-1.824697 -0.11413,-0.732739 -0.20654,-1.066228 -0.41651,-1.519285 -0.28414,-0.614008 -0.5195,-0.950552 -1.33015,-1.900142 -0.68128,-0.797277 -0.91388,-1.112472 -1.16841,-1.574583 -0.44522,-0.801296 -0.8797,-2.263103 -1.34513,-4.506184 -0.35394,-1.707854 -0.54065,-2.063893 -1.40922,-2.700094 -0.49301,-0.361815 -0.85844,-0.803914 -1.28364,-1.570446 -0.26727,-0.480229 -0.40423,-0.822246 -0.42995,-1.075904 -0.0343,-0.352887 0.17125,-0.75574 0.43512,-0.852144 0.21615,-0.08281 0.52411,0.0057 0.72553,0.206705 0.0507,0.05183 0.16313,0.234716 0.24805,0.410312 0.68279,1.40277 1.37267,2.058463 2.70578,2.572969 0.28769,0.109731 0.3585,0.120069 0.18551,0.02067 -0.6131,-0.341267 -1.20792,-0.859859 -1.49448,-1.301213 -0.12652,-0.195608 -0.23687,-0.506845 -0.23668,-0.671276 -0.001,-0.432108 0.29989,-0.797559 0.66405,-0.80822 0.15074,-0.0035 0.40655,0.06209 0.5488,0.144694 0.13959,0.08161 0.40279,0.314115 0.56586,0.504879 0.55939,0.649908 1.26856,1.266801 2.32285,2.020548 1.18671,0.851075 1.37409,1.027887 1.61334,1.535824 0.0894,0.191502 0.17277,0.319521 0.23513,0.371553 0.0529,0.04363 0.10688,0.07266 0.1173,0.06666 0.0104,-0.006 0.007,-0.09168 -0.008,-0.189652 -0.0175,-0.0987 -0.0261,-0.230538 -0.0181,-0.293006 0.0149,-0.09881 0.031,-0.126527 0.11421,-0.183451 0.0543,-0.03827 0.16637,-0.08463 0.24443,-0.101803 0.2645,-0.05511 0.42315,-0.0445 1.37459,0.07648 0.36659,0.04578 0.53697,0.04711 0.56741,-5.29e-4 0.0446,-0.06731 -0.18698,-0.146934 -1.20458,-0.414962 -1.14432,-0.299215 -1.24069,-0.334077 -1.79111,-0.679028 -0.49607,-0.306825 -0.88651,-0.667378 -1.30896,-1.204061 -0.54486,-0.692994 -0.88451,-1.395512 -0.9095,-1.881022 -0.009,-0.196248 -0.003,-0.229941 0.0847,-0.444417 0.21223,-0.51565 0.54783,-0.791984 1.03818,-0.856795 0.1676,-0.02245 0.23084,-0.01762 0.50746,0.05684 0.37797,0.101736 0.55694,0.212051 0.7984,0.482657 0.3054,0.349502 0.51368,0.787414 0.62115,1.315683 0.0576,0.276937 0.10452,0.832954 0.0915,1.099674 -0.005,0.127889 0.004,0.159482 0.032,0.131775 0.0863,-0.09133 0.24756,-0.51495 0.38395,-1.021643 0.15408,-0.572426 0.17261,-0.608614 0.35812,-0.708484 0.15843,-0.0866 0.3513,-0.105193 0.55397,-0.05064 0.33141,0.0892 0.46722,0.22861 0.63252,0.640271 0.12369,0.315273 0.22636,0.489954 0.46612,0.77773 0.59996,0.728387 1.55121,1.24298 2.54972,1.385445 0.37955,0.05222 0.38824,0.04259 0.076,-0.117822 -0.58686,-0.307768 -1.12936,-0.715341 -1.35702,-1.026294 -0.10946,-0.14989 -0.18122,-0.342444 -0.18449,-0.504878 -0.004,-0.106707 0.006,-0.142468 0.076,-0.238229 0.26449,-0.360598 0.8583,-0.220872 1.5105,0.357084 l 0.27595,0.241329 -0.0687,-0.171049 c -0.0838,-0.20172 -0.11123,-0.438424 -0.0729,-0.580843 0.0406,-0.150639 0.20633,-0.328875 0.40152,-0.432015 0.26324,-0.137697 0.70744,-0.206107 1.8371,-0.278019 1.74474,-0.109024 2.53671,-0.257453 3.40289,-0.638204 0.66721,-0.296259 1.28823,-0.792827 1.67174,-1.344621 0.13072,-0.19099 0.29548,-0.451931 0.27388,-0.437182 -0.007,0.004 -0.11651,0.08299 -0.24133,0.175699 -1.28867,0.9573 -3.115,1.346866 -5.56142,1.18184 -0.2859,-0.01821 -0.5454,-0.03525 -0.57774,-0.03514 -0.0378,-0.0014 -0.0328,-0.0087 0.0196,-0.01809 0.0428,-0.0061 0.2592,-0.04751 0.4842,-0.08682 1.78707,-0.320868 3.48198,-1.236727 4.53099,-2.449463 0.4307,-0.497967 0.64761,-0.856346 0.79685,-1.312581 l 0.0946,-0.297656 -0.1571,0.201538 c -0.42185,0.541474 -0.94152,0.977305 -1.63452,1.369425 -0.97731,0.553515 -2.2271,0.951482 -3.55069,1.132747 -0.40207,0.05333 -1.15847,0.113816 -1.22421,0.09612 -0.0192,-0.0052 0.096,-0.06221 0.25476,-0.128158 0.51152,-0.208922 0.84862,-0.370917 1.39216,-0.676961 1.13774,-0.636636 1.982,-1.305341 2.74609,-2.16886 0.70583,-0.799888 1.09309,-1.465125 1.29656,-2.221053 0.0877,-0.325927 0.14473,-0.689716 0.11937,-0.769979 -0.005,-0.01591 -0.0796,0.09948 -0.16846,0.254765 -0.68526,1.225459 -1.56755,2.156995 -2.62155,2.76624 -0.63338,0.367042 -1.08498,0.539234 -1.74925,0.671793 -0.34109,0.06681 -1.0452,0.129818 -1.14928,0.101803 -0.0274,-0.0074 0.0347,-0.07593 0.185,-0.208773 1.15541,-1.007856 2.11015,-2.360676 2.72387,-3.855062 0.17052,-0.415262 0.46307,-1.534739 0.51263,-1.959053 0.0728,-0.641314 0.0536,-1.377811 -0.0501,-1.91978 -0.041,-0.20783 -0.0475,-0.215832 -0.0584,-0.110071 h 5.3e-4 c -0.16625,1.326975 -0.70405,2.624475 -1.57975,3.816305 -2.2722,3.083541 -6.64591,5.157793 -10.01954,4.749064 -0.59455,-0.07191 -0.73458,-0.10974 -0.63304,-0.170532 0.0549,-0.02927 0.20395,-0.309021 0.24081,-0.445968 0.0818,-0.31578 0.035,-0.851018 -0.0925,-1.064535 l -0.0568,-0.09508 -0.017,0.16278 c -0.0642,0.587804 -0.63332,1.195477 -1.41439,1.511019 -0.48445,0.195647 -1.01623,0.284538 -1.40198,0.233578 -0.10503,-0.01357 -0.19599,-0.0261 -0.19999,-0.03307 -0.002,-0.0032 0.0274,-0.06903 0.0661,-0.146761 0.1483,-0.28906 0.23714,-0.946645 0.17673,-1.300696 l -0.0305,-0.169499 -0.0915,0.251148 c -0.1804,0.506598 -0.46589,0.90271 -0.8077,1.124996 -0.21447,0.142011 -0.37244,0.193721 -0.58912,0.191203 -0.62119,-0.0057 -1.09064,-0.455264 -0.96531,-0.920874 0.17176,-0.638159 1.14731,-1.380102 2.12441,-1.616439 1.0338,-0.250455 1.85822,-0.771797 2.00608,-1.26659 0.0268,-0.08971 0.0429,-0.170513 0.0372,-0.180867 -0.006,-0.01041 -0.0766,0.0438 -0.15916,0.12144 -0.23584,0.221435 -0.53817,0.396006 -0.7736,0.441316 -0.17676,0.03467 -0.24455,0.03387 -0.44597,-0.01447 -0.13294,-0.02988 -0.26015,-0.07009 -0.28112,-0.09043 -0.0325,-0.03224 -0.0176,-0.04292 0.0863,-0.07958 0.82922,-0.276147 1.59288,-1.453898 1.44798,-2.236039 l -0.0269,-0.151412 -0.0295,0.09767 c -0.16484,0.557782 -0.65485,0.925763 -1.2516,0.938444 l -0.0734,5.29e-4 0.0873,-0.07338 c 0.14684,-0.130837 0.36045,-0.378636 0.47284,-0.545186 0.15347,-0.231859 0.29068,-0.665236 0.30489,-0.958081 0.01,-0.232387 -0.0756,-0.733807 -0.14004,-0.821656 -0.0322,-0.04392 -0.0349,-0.04464 -0.0315,-0.0026 0.004,0.02761 -0.0108,0.17023 -0.03,0.31781 -0.0721,0.529865 -0.28121,0.805285 -0.7369,0.970484 -0.14957,0.05373 -0.19322,0.06272 -0.16847,0.02532 0.0183,-0.02446 0.0923,-0.157142 0.16072,-0.291455 0.15767,-0.312974 0.27676,-0.809582 0.28421,-1.186491 0.006,-0.359735 -0.094,-0.83008 -0.23099,-1.096057 z"
       style="fill:#000000;stroke:none;stroke-width:0.0352777"
       id="path27983"
       sodipodi:nodetypes="cccccccccccccccccccccccccccccccccccccccccccccccccccccccccccccccccccccccccccccccccccccccccccccccccccccccccccccccccccccccccccccccccccccccccccccccccccccccccccccccccccccccccccccccccccccccccccccccccc" />
    <path
       d="m 59.234994,61.790093 v -0.30838 l 0.0514,-0.0514 c 0.286964,-0.0043 0.479702,-0.02996 0.578213,-0.07709 0.09851,-0.05139 0.224859,-0.17346 0.379049,-0.366201 0.893229,-1.196842 3.288156,-3.924409 4.247277,-5.255936 -0.527607,-0.925709 -2.10734,-3.540655 -2.636823,-4.296774 -0.286965,-0.419739 -0.513967,-0.710987 -0.681006,-0.873743 -0.162756,-0.162756 -0.284823,-0.256983 -0.366202,-0.282681 -0.08138,-0.0257 -0.306237,-0.03855 -0.67458,-0.03855 l -0.05782,-0.05782 v -0.269833 l 0.05782,-0.05782 1.818156,-0.301955 c 0.158473,0.102793 0.327654,0.274115 0.507542,0.513966 0.70793,1.023312 2.140025,3.485145 2.810288,4.650126 l 4.041691,-5.172417 c 0.364059,0.01285 0.441061,0.01962 0.661731,0.01927 0.199266,-3.12e-4 0.233429,-0.0064 0.597487,-0.01927 l 0.0514,0.05782 v 0.289106 l -0.0514,0.0514 c -0.269833,0.01285 -0.449272,0.03961 -0.539665,0.07709 -0.08523,0.03534 -0.199163,0.124211 -0.340504,0.269832 -1.012902,1.26681 -3.223444,3.749485 -4.11236,4.934708 l 3.200843,5.150931 c 0.205587,0.334078 0.370484,0.584637 0.494693,0.751676 0.128492,0.162756 0.231285,0.261266 0.30838,0.295531 0.07709,0.02998 0.252701,0.04711 0.526816,0.0514 l 0.0514,0.0514 v 0.314804 l -0.0514,0.0514 c -0.406891,-0.01713 -0.693855,-0.0257 -0.860894,-0.0257 -0.218436,0 -0.548231,0.0086 -0.989386,0.0257 -0.256983,-0.381192 -0.488777,-0.763733 -0.713129,-1.137151 l -2.712574,-4.514897 c -0.996915,1.357932 -3.531667,4.433817 -4.234428,5.609288 -0.278399,-0.01713 -0.496835,-0.0257 -0.655307,-0.0257 -0.162757,0 -0.379051,0.0086 -0.648884,0.0257 z"
       style="font-size:96px;line-height:0;font-family:'Palatino Linotype';-inkscape-font-specification:'Palatino Linotype';text-align:end;letter-spacing:0px;word-spacing:0px;white-space:pre;shape-inside:url(#rect31240);stroke-width:0.26458314"
       id="path844"
       inkscape:connector-curvature="0"
       sodipodi:nodetypes="cccccccccccccccccaccccscccccccccscsccscc" />
    <path
       d="m 70.277862,51.456846 q 1.638268,0.0514 1.83743,0.0514 0.212011,0 1.843855,-0.0514 l 0.0514,0.04497 v 0.321229 l -0.0514,0.04497 q -0.443296,0.01285 -0.68743,0.03855 -0.23771,0.0257 -0.346927,0.09637 -0.109219,0.07067 -0.147766,0.334078 -0.03212,0.256983 -0.03212,0.719553 l -0.01284,1.477654 v 0.899442 q 1.406983,0.03855 2.666201,0.03855 1.721788,0 2.621229,-0.03855 V 54.53422 l -0.01284,-1.252793 q -0.0064,-0.732403 -0.03855,-0.944414 -0.03212,-0.212011 -0.08995,-0.282682 -0.05782,-0.07067 -0.231285,-0.115642 -0.173463,-0.04497 -0.860894,-0.07067 l -0.04497,-0.04497 V 51.50182 l 0.04497,-0.04497 q 1.644693,0.0514 1.843856,0.0514 0.218436,0 1.843855,-0.0514 l 0.0514,0.04497 v 0.321229 l -0.0514,0.04497 q -0.449721,0.01285 -0.693855,0.03855 -0.237709,0.0257 -0.346928,0.09637 -0.109217,0.07067 -0.141341,0.334078 -0.03212,0.256983 -0.03855,0.719553 l -0.01284,1.477654 v 2.974582 l 0.01284,1.252793 q 0.0064,0.725978 0.03855,0.937989 0.03212,0.212011 0.08995,0.282682 0.06424,0.07067 0.231285,0.122067 0.173464,0.04497 0.860894,0.07067 l 0.0514,0.03855 v 0.321229 l -0.0514,0.0514 q -1.644693,-0.0514 -1.843855,-0.0514 -0.205586,0 -1.843856,0.0514 l -0.04497,-0.0514 v -0.321229 l 0.04497,-0.03855 q 0.603911,-0.0257 0.803074,-0.06425 0.199161,-0.03855 0.263407,-0.09637 0.06425,-0.06425 0.109219,-0.263408 0.04497,-0.199162 0.04497,-0.886593 L 78.01949,57.5088 v -1.464805 q -1.901676,-0.03855 -2.666201,-0.03855 -0.783799,0 -2.621229,0.03855 V 57.5088 l 0.0064,1.252793 q 0.0064,0.725978 0.03855,0.937989 0.03212,0.212011 0.08994,0.282682 0.06424,0.07067 0.23771,0.122067 0.173463,0.04497 0.854469,0.07067 l 0.0514,0.03855 v 0.321229 l -0.0514,0.0514 q -1.638268,-0.0514 -1.843855,-0.0514 -0.199162,0 -1.83743,0.0514 l -0.0514,-0.0514 v -0.321229 l 0.0514,-0.03855 q 0.597485,-0.0257 0.796648,-0.06425 0.199161,-0.03855 0.263407,-0.09637 0.07067,-0.06425 0.109219,-0.263408 0.04497,-0.199162 0.0514,-0.886593 l 0.0064,-1.355586 v -2.974582 l -0.01284,-1.252793 q -0.0064,-0.732403 -0.03855,-0.944414 -0.0257,-0.212011 -0.08995,-0.282682 -0.05782,-0.07067 -0.231285,-0.115642 -0.173463,-0.04497 -0.854468,-0.07067 l -0.0514,-0.04497 v -0.321229 z"
       style="font-size:96px;line-height:0;font-family:'Palatino Linotype';-inkscape-font-specification:'Palatino Linotype';text-align:end;letter-spacing:0px;word-spacing:0px;white-space:pre;shape-inside:url(#rect31240);stroke-width:0.26458314"
       id="path846"
       inkscape:connector-curvature="0" />
    <path
       d="m 81.12898,60.586177 -0.05782,-0.0514 v -0.334079 l 0.05782,-0.0514 q 0.468995,-0.0064 0.603911,-0.04497 0.134917,-0.04497 0.23771,-0.167039 0.109217,-0.128492 0.430446,-0.822347 l 0.674582,-1.464805 1.747487,-3.957542 q 0.494692,-1.16285 0.98296,-2.325699 h 0.417598 l 2.743296,6.450281 0.366202,0.860894 q 0.160614,0.366201 0.366201,0.796648 0.212012,0.430447 0.289107,0.507542 0.08352,0.07709 0.199161,0.122067 0.122068,0.03855 0.533241,0.04497 l 0.0514,0.0514 v 0.334079 l -0.0514,0.0514 q -0.681006,-0.05782 -1.227096,-0.05782 -1.066481,0.03212 -2.132961,0.05782 l -0.0514,-0.0514 v -0.334079 l 0.0514,-0.0514 q 0.719553,-0.01285 0.899441,-0.05782 0.179889,-0.0514 0.179889,-0.224861 0,-0.141341 -0.08995,-0.372626 l -0.790222,-1.959497 h -3.719834 l -0.700279,1.644693 q -0.186313,0.443296 -0.186313,0.648883 0,0.160614 0.173464,0.237709 0.173463,0.07709 0.873743,0.08352 l 0.05782,0.0514 v 0.334079 l -0.0514,0.0514 q -0.82877,-0.0514 -1.451956,-0.0514 -0.706704,0 -1.426257,0.0514 z m 2.92961,-3.60419 h 3.250838 l -1.612569,-3.874023 z m 1.946649,-6.00056 z m -0.147766,9.938829 z"
       style="font-size:96px;line-height:0;font-family:'Palatino Linotype';-inkscape-font-specification:'Palatino Linotype';text-align:end;letter-spacing:0px;word-spacing:0px;white-space:pre;shape-inside:url(#rect31240);stroke-width:0.26458314"
       id="path848"
       inkscape:connector-curvature="0" />
    <path
       d="m 91.350491,51.501818 0.0514,-0.04497 q 1.175697,0.0514 1.831005,0.0514 0.725978,0 1.959498,-0.04497 0.456145,-0.01285 0.661731,-0.01285 1.62542,0 2.203633,0.591061 0.578212,0.591062 0.578212,1.400559 0,0.539665 -0.282682,1.060056 -0.282681,0.520391 -0.835195,0.893017 -0.552514,0.366201 -1.522627,0.552514 0.179888,0.250559 0.648883,0.867319 l 0.912291,1.207821 q 0.443296,0.597486 0.950838,1.265643 0.507542,0.661732 0.655308,0.751676 0.147764,0.08352 0.250558,0.102793 0.109218,0.01927 0.340503,0.01927 l 0.0514,0.0514 v 0.301955 l -0.05782,0.05782 q -0.30838,-0.03855 -0.732402,-0.03855 -0.456145,0 -0.99581,0.03855 -0.443297,-0.539665 -1.394135,-1.869553 -1.105028,-1.5419 -2.261453,-2.858939 l 0.06425,-0.199162 q 0.334078,0.01927 0.520392,0.01927 1.111452,0 1.741061,-0.533241 0.629609,-0.53324 0.629609,-1.477654 0,-0.848044 -0.565363,-1.278491 -0.565364,-0.436872 -1.529051,-0.436872 -0.67458,0 -1.272067,0.186313 -0.09637,0.141341 -0.09637,2.409218 v 2.974582 l 0.0064,1.252793 q 0.0064,0.725978 0.03855,0.937989 0.03212,0.212011 0.08995,0.282682 0.06424,0.07067 0.23771,0.122067 0.173463,0.04497 0.854468,0.07067 l 0.0514,0.03855 v 0.321229 l -0.0514,0.0514 q -0.03212,0 -1.130726,-0.03855 -0.456145,-0.01285 -0.713128,-0.01285 -0.199163,0 -1.83743,0.0514 l -0.0514,-0.0514 v -0.321229 l 0.0514,-0.03855 q 0.597485,-0.0257 0.796648,-0.06425 0.199161,-0.03855 0.263407,-0.09637 0.07067,-0.06425 0.109219,-0.263408 0.04497,-0.199162 0.0514,-0.886593 l 0.0064,-1.355586 v -2.974582 l -0.01284,-1.252793 q -0.0064,-0.732403 -0.03855,-0.944414 -0.0257,-0.212011 -0.08994,-0.282682 -0.05782,-0.07067 -0.231285,-0.115642 -0.173463,-0.04497 -0.854468,-0.07067 l -0.0514,-0.04497 z"
       style="font-size:96px;line-height:0;font-family:'Palatino Linotype';-inkscape-font-specification:'Palatino Linotype';text-align:end;letter-spacing:0px;word-spacing:0px;white-space:pre;shape-inside:url(#rect31240);stroke-width:0.26458314"
       id="path850"
       inkscape:connector-curvature="0" />
    <path
       d="m 100.24854,51.456846 q 1.61899,0.0514 2.06229,0.0514 0.60391,0 1.35558,-0.03212 0.79665,-0.0257 0.98297,-0.0257 0.89944,0 1.48407,0.186313 0.59107,0.186312 0.97654,0.681005 0.38547,0.494693 0.38547,1.194973 0,0.578212 -0.26983,1.117877 -0.26983,0.539665 -0.75167,0.918715 -0.48185,0.37905 -0.97654,0.54609 -0.49469,0.160614 -1.02793,0.160614 -0.39833,0 -0.88659,-0.08994 l -0.10922,-0.3919 0.0578,-0.06425 q 0.48184,0.109217 0.7838,0.109217 0.84162,0 1.34916,-0.552514 0.51397,-0.558938 0.51397,-1.426257 0,-0.873743 -0.53324,-1.394134 -0.52682,-0.520391 -1.59973,-0.520391 -0.58463,0 -1.28491,0.218436 -0.0578,0.494692 -0.0578,2.389944 v 2.974582 l 0.006,1.252793 q 0.006,0.725978 0.0386,0.937989 0.0321,0.212011 0.09,0.282682 0.0642,0.07067 0.23771,0.122067 0.17346,0.04497 0.85447,0.07067 l 0.0514,0.03855 v 0.321229 l -0.0514,0.0514 q -1.63827,-0.0514 -1.84386,-0.0514 -0.21844,0 -1.83743,0.0514 l -0.0514,-0.0514 v -0.321229 l 0.0514,-0.03855 q 0.59749,-0.0257 0.79665,-0.06425 0.19916,-0.03855 0.26341,-0.09637 0.0707,-0.06425 0.10921,-0.263408 0.045,-0.199162 0.0514,-0.886593 l 0.006,-1.355586 v -2.974582 l -0.0128,-1.252793 q -0.006,-0.732403 -0.0386,-0.944414 -0.0257,-0.212011 -0.09,-0.282682 -0.0578,-0.07067 -0.23128,-0.115642 -0.17347,-0.04497 -0.85447,-0.07067 l -0.0514,-0.04497 v -0.321229 z"
       style="font-size:96px;line-height:0;font-family:'Palatino Linotype';-inkscape-font-specification:'Palatino Linotype';text-align:end;letter-spacing:0px;word-spacing:0px;white-space:pre;shape-inside:url(#rect31240);stroke-width:0.26458314"
       id="path852"
       inkscape:connector-curvature="0" />
    <path
       d="m 108.1058,64.023329 q 0.21844,-0.539665 0.32765,-0.989386 h 0.15419 q 0.31481,0.340503 0.68101,0.340503 0.45615,0 0.79022,-0.456145 0.34051,-0.449721 0.95727,-1.998045 -0.24414,-0.687431 -0.4947,-1.297766 l -1.02151,-2.531285 q -0.16061,-0.3919 -0.47541,-1.117878 -0.31481,-0.732402 -0.37905,-0.803072 -0.0578,-0.07709 -0.15419,-0.141341 -0.0964,-0.06425 -0.5204,-0.122067 l -0.0514,-0.0514 v -0.256983 l 0.0578,-0.0514 q 0.73883,0.04497 1.5162,0.04497 0.91229,0 1.40698,-0.04497 l 0.0514,0.0514 v 0.256983 l -0.045,0.0514 q -0.0707,0.0064 -0.39833,0.03212 -0.32122,0.01927 -0.40474,0.102793 -0.0771,0.07709 -0.0771,0.179888 0,0.109218 0.19916,0.713129 0.19916,0.597486 0.38548,1.060056 l 0.40475,1.002235 q 0.39832,0.989385 0.61676,1.45838 l 0.3405,-0.751676 q 0.17989,-0.411173 0.51397,-1.246369 l 0.53324,-1.362011 q 0.20558,-0.526816 0.23128,-0.655308 0.0321,-0.128491 0.0321,-0.186313 0,-0.14134 -0.10279,-0.192737 -0.10279,-0.0514 -0.45615,-0.08994 l -0.26983,-0.03855 -0.045,-0.0514 v -0.282682 l 0.0514,-0.0514 q 0.53966,0.04497 1.27849,0.04497 0.67458,0 1.07933,-0.04497 l 0.0514,0.0514 v 0.282682 l -0.0514,0.0514 q -0.23771,0.0064 -0.37905,0.06425 -0.14134,0.05782 -0.26983,0.205587 -0.1285,0.147765 -0.46257,0.835195 -0.33408,0.681006 -0.66816,1.413408 l -0.62961,1.381285 -1.48408,3.469275 q -0.19274,0.449721 -0.48184,0.963687 -0.28268,0.513967 -0.70028,0.738827 -0.41117,0.231285 -0.87374,0.231285 -0.40475,0 -0.76453,-0.212011 z m 3.43715,-10.015924 z m 1.50978,6.912851 z"
       style="font-size:96px;line-height:0;font-family:'Palatino Linotype';-inkscape-font-specification:'Palatino Linotype';text-align:end;letter-spacing:0px;word-spacing:0px;white-space:pre;shape-inside:url(#rect31240);stroke-width:0.26458314"
       id="path854"
       inkscape:connector-curvature="0" />
  </g>
  <metadata
     id="metadata902">
    <rdf:RDF>
      <cc:Work
         rdf:about="">
        <dc:title>XHARPy Logo</dc:title>
        <dc:format>image/svg+xml</dc:format>
        <dc:type
           rdf:resource="http://purl.org/dc/dcmitype/StillImage" />
      </cc:Work>
    </rdf:RDF>
  </metadata>
</svg>
